<svg xmlns="http://www.w3.org/2000/svg" width="30" height="30" fill="none"><g clip-path="url(#a)"><path fill="#F2F4F8" stroke="#4B5563" stroke-linecap="round" stroke-linejoin="round" stroke-width="2" d="M12.6 2.02c.365-1.016 1.801-1.016 2.165 0l2.189 6.105a1.15 1.15 0 0 0 1.082.762h6.64c1.128 0 1.582 1.455.653 2.096L19.946 14.7a1.15 1.15 0 0 0-.446 1.284l1.773 5.772c.325 1.058-.884 1.92-1.777 1.266L14.36 19.27a1.15 1.15 0 0 0-1.357 0L7.87 23.022c-.893.653-2.103-.208-1.778-1.266l1.774-5.772c.147-.48-.033-1-.446-1.284l-5.384-3.717c-.928-.641-.474-2.096.654-2.096h6.64a1.15 1.15 0 0 0 1.082-.762L12.6 2.019Z"/></g><defs><clipPath id="a"><path fill="#fff" d="M0 0h30v30H0z"/></clipPath></defs></svg>