<svg xmlns="http://www.w3.org/2000/svg" width="30" height="30" fill="none"><path fill="#F2F4F8" d="M1 8.448A5.448 5.448 0 0 1 6.448 3h16.344a5.448 5.448 0 0 1 5.448 5.448v13.62a5.448 5.448 0 0 1-5.448 5.448H6.448A5.448 5.448 0 0 1 1 22.068V8.448Z"/><path stroke="#4B5563" stroke-linejoin="round" stroke-width="1.525" d="M1 8.448A5.448 5.448 0 0 1 6.448 3h16.344a5.448 5.448 0 0 1 5.448 5.448v13.62a5.448 5.448 0 0 1-5.448 5.448H6.448A5.448 5.448 0 0 1 1 22.068V8.448Z"/><path fill="#F2F4F8" d="M1 8.448h27.24v5.448H1V8.448Z"/><path stroke="#4B5563" stroke-linejoin="round" stroke-width="1.525" d="M1 8.448h27.24v5.448H1V8.448Z"/></svg>