<svg xmlns="http://www.w3.org/2000/svg" width="28" height="26" fill="none"><path fill="#F2F4F8" d="M2.98 8.92h19.798a1.98 1.98 0 0 0 1.98-1.98V2.98A1.98 1.98 0 0 0 22.778 1H2.98A1.98 1.98 0 0 0 1 2.98v3.96a1.98 1.98 0 0 0 1.98 1.98Zm16.869-3.96h-13.9Z"/><path stroke="#4B5563" stroke-width="1.6" d="M19.849 4.96h-13.9M2.98 8.92h19.799a1.98 1.98 0 0 0 1.98-1.98V2.98A1.98 1.98 0 0 0 22.778 1H2.98A1.98 1.98 0 0 0 1 2.98v3.96a1.98 1.98 0 0 0 1.98 1.98Z"/><path fill="#F2F4F8" d="M2.98 16.838h19.798a1.98 1.98 0 0 0 1.98-1.98V10.9a1.98 1.98 0 0 0-1.98-1.98H2.98A1.98 1.98 0 0 0 1 10.9v3.96a1.98 1.98 0 0 0 1.98 1.98Zm16.869-3.96h-13.9Z"/><path stroke="#4B5563" stroke-width="1.6" d="M19.849 12.879h-13.9m-2.97 3.96h19.799a1.98 1.98 0 0 0 1.98-1.98v-3.96a1.98 1.98 0 0 0-1.98-1.98H2.98A1.98 1.98 0 0 0 1 10.9v3.96a1.98 1.98 0 0 0 1.98 1.98Z"/><path fill="#F2F4F8" d="M2.98 24.758h19.798a1.98 1.98 0 0 0 1.98-1.98v-3.96a1.98 1.98 0 0 0-1.98-1.98H2.98A1.98 1.98 0 0 0 1 18.819v3.96a1.98 1.98 0 0 0 1.98 1.98Zm16.869-3.96h-13.9Z"/><path stroke="#4B5563" stroke-width="1.6" d="M19.849 20.798h-13.9m-2.97 3.96h19.799a1.98 1.98 0 0 0 1.98-1.98v-3.96a1.98 1.98 0 0 0-1.98-1.98H2.98A1.98 1.98 0 0 0 1 18.819v3.96a1.98 1.98 0 0 0 1.98 1.98Z"/></svg>