<svg xmlns="http://www.w3.org/2000/svg" width="30" height="30" fill="none"><path fill="#F2F4F8" fill-rule="evenodd" d="M22.294 9.77a3.794 3.794 0 0 0 3.262-3.748A3.793 3.793 0 0 0 22.38 2.28" clip-rule="evenodd"/><path stroke="#4B5563" stroke-linecap="round" stroke-linejoin="round" stroke-width="1.731" d="M22.294 9.77a3.794 3.794 0 0 0 3.262-3.748A3.793 3.793 0 0 0 22.38 2.28"/><path fill="#F2F4F8" fill-rule="evenodd" d="M24.723 14.196c1.782.267 3.027.89 3.027 2.177 0 .886-.586 1.46-1.534 1.822" clip-rule="evenodd"/><path stroke="#4B5563" stroke-linecap="round" stroke-linejoin="round" stroke-width="1.731" d="M24.723 14.196c1.782.267 3.027.89 3.027 2.177 0 .886-.586 1.46-1.534 1.822"/><path fill="#F2F4F8" fill-rule="evenodd" stroke="#4B5563" stroke-linecap="round" stroke-linejoin="round" stroke-width="1.731" d="M14.376 14.741c-4.241 0-7.863.643-7.863 3.21 0 2.564 3.6 3.226 7.863 3.226 4.24 0 7.861-.636 7.861-3.204s-3.598-3.232-7.861-3.232Zm0-3.662a5.039 5.039 0 1 0-5.039-5.04 5.02 5.02 0 0 0 5.002 5.04h.037Z" clip-rule="evenodd"/><path fill="#F2F4F8" fill-rule="evenodd" d="M6.456 9.77a3.793 3.793 0 0 1-3.262-3.748A3.793 3.793 0 0 1 6.37 2.28" clip-rule="evenodd"/><path stroke="#4B5563" stroke-linecap="round" stroke-linejoin="round" stroke-width="1.731" d="M6.456 9.77a3.793 3.793 0 0 1-3.262-3.748A3.793 3.793 0 0 1 6.37 2.28"/><path fill="#F2F4F8" fill-rule="evenodd" d="M4.027 14.196C2.244 14.463 1 15.086 1 16.373c0 .886.586 1.46 1.533 1.822" clip-rule="evenodd"/><path stroke="#4B5563" stroke-linecap="round" stroke-linejoin="round" stroke-width="1.731" d="M4.027 14.196C2.244 14.463 1 15.086 1 16.373c0 .886.586 1.46 1.533 1.822"/></svg>