<svg xmlns="http://www.w3.org/2000/svg" width="28" height="26" fill="#F2F4F8"><g clip-path="url(#a)"><mask id="b" fill="#F2F4F8"><path d="M13.53 0h-.032l-.315.063a6.798 6.798 0 0 0-2.034.584 6.003 6.003 0 0 0-1.75 1.214A6.137 6.137 0 0 0 7.6 4.73a6.215 6.215 0 0 0-.253 1.986c.021.694.147 1.357.379 1.987a6.492 6.492 0 0 0 1.64 2.46l.41.379L7.159 15.8c-.547-.02-1.02.053-1.42.221-.63.273-1.103.694-1.418 1.261a3.255 3.255 0 0 0-.284.978 2.73 2.73 0 0 0 .063 1.01c.168.63.515 1.135 1.04 1.513.316.21.663.363 1.041.457.379.095.757.116 1.136.064a2.837 2.837 0 0 0 1.088-.395c.347-.21.636-.473.867-.788.252-.357.405-.767.457-1.23a2.539 2.539 0 0 0-.173-1.293c-.021-.105-.095-.252-.22-.442l-.096-.189 3.722-6.055c.126-.19.21-.336.252-.442l-.315-.094a1.93 1.93 0 0 1-.41-.126 4.51 4.51 0 0 1-1.309-.868 3.966 3.966 0 0 1-.899-1.245 3.673 3.673 0 0 1-.284-2.366c.085-.483.263-.935.537-1.356.273-.42.599-.778.977-1.072a4.286 4.286 0 0 1 2.586-.852 3.92 3.92 0 0 1 1.656.3c.536.22 1.004.541 1.403.962.358.336.636.741.836 1.214.2.473.31.952.331 1.435 0 .358-.063.8-.189 1.325l2.208.599.252.031a5.691 5.691 0 0 0 .22-2.712 5.98 5.98 0 0 0-.614-2.002 6.22 6.22 0 0 0-1.246-1.688C18.071 1.072 16.988.484 15.706.19a4.023 4.023 0 0 0-.568-.126L14.697 0H13.53Zm.567 3.91a2.927 2.927 0 0 0-2.034.867 2.51 2.51 0 0 0-.615.994c-.168.42-.21.883-.126 1.388.063.378.21.736.442 1.072.23.337.525.6.883.789.504.315 1.093.452 1.766.41.063.084.115.168.157.252l3.532 6.024c.064.126.127.22.19.284.567-.547 1.182-.92 1.845-1.12a4.35 4.35 0 0 1 2.05-.11 4.038 4.038 0 0 1 1.845.82c.672.525 1.13 1.172 1.371 1.94.242.767.248 1.54.016 2.317a3.83 3.83 0 0 1-.899 1.577c-.43.462-.94.81-1.53 1.04a4.023 4.023 0 0 1-2.096.269 4.325 4.325 0 0 1-2.003-.773 42.19 42.19 0 0 1-.41-.315l-.158-.19c-.084.064-.2.169-.347.316l-1.482 1.45c.484.484 1.03.889 1.64 1.215.61.326 1.251.552 1.924.678l.694.126h1.23l.883-.158a6.587 6.587 0 0 0 3.469-1.892 6.233 6.233 0 0 0 1.15-1.593 6.33 6.33 0 0 0 .616-1.876 6.765 6.765 0 0 0-.063-2.255 6.037 6.037 0 0 0-.789-2.034 6.899 6.899 0 0 0-3.185-2.712 6.776 6.776 0 0 0-2.223-.505 7.379 7.379 0 0 0-2.255.22l-.536.159-2.555-4.321c.273-.4.442-.789.505-1.167a2.64 2.64 0 0 0-.41-1.892A2.67 2.67 0 0 0 15.2 4.1a3.293 3.293 0 0 0-1.104-.19Zm-8.893 8.326a6.57 6.57 0 0 0-3.154 1.672c-.988.925-1.63 2.029-1.924 3.312L0 17.976v1.167l.063.347c.042.274.084.484.126.63.147.653.405 1.273.773 1.862a6.513 6.513 0 0 0 1.34 1.545 6.942 6.942 0 0 0 3.627 1.545 7.374 7.374 0 0 0 2.397-.142 7.025 7.025 0 0 0 2.207-.898 6.395 6.395 0 0 0 2.46-2.87c.148-.358.295-.83.442-1.42.126-.02.315-.02.568 0l3.942.063c.294 0 .504.011.63.032.232.42.495.747.789.978.294.231.625.4.993.504.368.105.742.148 1.12.127a3.063 3.063 0 0 0 1.577-.631 2.58 2.58 0 0 0 1.01-1.703 3.128 3.128 0 0 0-.048-1.041 2.555 2.555 0 0 0-.426-.946 2.903 2.903 0 0 0-1.293-1.01 2.714 2.714 0 0 0-1.12-.204c-.389.01-.762.089-1.12.236a2.84 2.84 0 0 0-1.355 1.167l-.095.19c-.294 0-.736-.011-1.325-.032l-3.563-.032a21.928 21.928 0 0 0-1.356-.031l-1.577-.032.094.536a3.722 3.722 0 0 1-.41 2.555 3.881 3.881 0 0 1-1.261 1.419 4.019 4.019 0 0 1-1.798.694 4.106 4.106 0 0 1-2.207-.237 4.026 4.026 0 0 1-1.798-1.34 3.74 3.74 0 0 1-.851-2.492 3.963 3.963 0 0 1 .725-2.176c.273-.4.61-.735 1.01-1.009.399-.273.83-.473 1.292-.599l.284-.095-.662-2.396Z"/></mask><path fill="#F2F4F8" stroke="#fff" stroke-width=".8" d="M13.53 0h-.032l-.315.063a6.798 6.798 0 0 0-2.034.584 6.003 6.003 0 0 0-1.75 1.214A6.137 6.137 0 0 0 7.6 4.73a6.215 6.215 0 0 0-.253 1.986c.021.694.147 1.357.379 1.987a6.492 6.492 0 0 0 1.64 2.46l.41.379L7.159 15.8c-.547-.02-1.02.053-1.42.221-.63.273-1.103.694-1.418 1.261a3.255 3.255 0 0 0-.284.978 2.73 2.73 0 0 0 .063 1.01c.168.63.515 1.135 1.04 1.513.316.21.663.363 1.041.457.379.095.757.116 1.136.064a2.837 2.837 0 0 0 1.088-.395c.347-.21.636-.473.867-.788.252-.357.405-.767.457-1.23a2.539 2.539 0 0 0-.173-1.293c-.021-.105-.095-.252-.22-.442l-.096-.189 3.722-6.055c.126-.19.21-.336.252-.442l-.315-.094a1.93 1.93 0 0 1-.41-.126 4.51 4.51 0 0 1-1.309-.868 3.966 3.966 0 0 1-.899-1.245 3.673 3.673 0 0 1-.284-2.366c.085-.483.263-.935.537-1.356.273-.42.599-.778.977-1.072a4.286 4.286 0 0 1 2.586-.852 3.92 3.92 0 0 1 1.656.3c.536.22 1.004.541 1.403.962.358.336.636.741.836 1.214.2.473.31.952.331 1.435 0 .358-.063.8-.189 1.325l2.208.599.252.031a5.691 5.691 0 0 0 .22-2.712 5.98 5.98 0 0 0-.614-2.002 6.22 6.22 0 0 0-1.246-1.688C18.071 1.072 16.988.484 15.706.19a4.023 4.023 0 0 0-.568-.126L14.697 0H13.53Zm.567 3.91a2.927 2.927 0 0 0-2.034.867 2.51 2.51 0 0 0-.615.994c-.168.42-.21.883-.126 1.388.063.378.21.736.442 1.072.23.337.525.6.883.789.504.315 1.093.452 1.766.41.063.084.115.168.157.252l3.532 6.024c.064.126.127.22.19.284.567-.547 1.182-.92 1.845-1.12a4.35 4.35 0 0 1 2.05-.11 4.038 4.038 0 0 1 1.845.82c.672.525 1.13 1.172 1.371 1.94.242.767.248 1.54.016 2.317a3.83 3.83 0 0 1-.899 1.577c-.43.462-.94.81-1.53 1.04a4.023 4.023 0 0 1-2.096.269 4.325 4.325 0 0 1-2.003-.773 42.19 42.19 0 0 1-.41-.315l-.158-.19c-.084.064-.2.169-.347.316l-1.482 1.45c.484.484 1.03.889 1.64 1.215.61.326 1.251.552 1.924.678l.694.126h1.23l.883-.158a6.587 6.587 0 0 0 3.469-1.892 6.233 6.233 0 0 0 1.15-1.593 6.33 6.33 0 0 0 .616-1.876 6.765 6.765 0 0 0-.063-2.255 6.037 6.037 0 0 0-.789-2.034 6.899 6.899 0 0 0-3.185-2.712 6.776 6.776 0 0 0-2.223-.505 7.379 7.379 0 0 0-2.255.22l-.536.159-2.555-4.321c.273-.4.442-.789.505-1.167a2.64 2.64 0 0 0-.41-1.892A2.67 2.67 0 0 0 15.2 4.1a3.293 3.293 0 0 0-1.104-.19Zm-8.893 8.326a6.57 6.57 0 0 0-3.154 1.672c-.988.925-1.63 2.029-1.924 3.312L0 17.976v1.167l.063.347c.042.274.084.484.126.63.147.653.405 1.273.773 1.862a6.513 6.513 0 0 0 1.34 1.545 6.942 6.942 0 0 0 3.627 1.545 7.374 7.374 0 0 0 2.397-.142 7.025 7.025 0 0 0 2.207-.898 6.395 6.395 0 0 0 2.46-2.87c.148-.358.295-.83.442-1.42.126-.02.315-.02.568 0l3.942.063c.294 0 .504.011.63.032.232.42.495.747.789.978.294.231.625.4.993.504.368.105.742.148 1.12.127a3.063 3.063 0 0 0 1.577-.631 2.58 2.58 0 0 0 1.01-1.703 3.128 3.128 0 0 0-.048-1.041 2.555 2.555 0 0 0-.426-.946 2.903 2.903 0 0 0-1.293-1.01 2.714 2.714 0 0 0-1.12-.204c-.389.01-.762.089-1.12.236a2.84 2.84 0 0 0-1.355 1.167l-.095.19c-.294 0-.736-.011-1.325-.032l-3.563-.032a21.928 21.928 0 0 0-1.356-.031l-1.577-.032.094.536a3.722 3.722 0 0 1-.41 2.555 3.881 3.881 0 0 1-1.261 1.419 4.019 4.019 0 0 1-1.798.694 4.106 4.106 0 0 1-2.207-.237 4.026 4.026 0 0 1-1.798-1.34 3.74 3.74 0 0 1-.851-2.492 3.963 3.963 0 0 1 .725-2.176c.273-.4.61-.735 1.01-1.009.399-.273.83-.473 1.292-.599l.284-.095-.662-2.396Z" mask="url(#b)"/></g><defs><clipPath id="a"><path fill="#F2F4F8" d="M0 0h28v26H0z"/></clipPath></defs></svg>