<svg xmlns="http://www.w3.org/2000/svg" width="32" height="30" fill="none"><path fill="#F2F4F8" stroke="#4B5563" stroke-width="2" d="m5.183 20.662-.723.673.723-.673a98.5 98.5 0 0 0-.178-.19C3.21 18.55 1 16.156 1 11.958 1 5.89 5.794 1 11.626 1c5.831 0 10.626 4.89 10.626 10.958 0 4.198-2.211 6.592-4.006 8.514l-.177.19c-.449.483-1.053.76-1.659.76H6.842c-.605 0-1.21-.277-1.66-.76Z"/><mask id="a" fill="#fff"><path d="M7.579 24.664a.996.996 0 0 0-.975 1.206c.17.781.295 1.334.307 1.387l.001.009c.337 1.548 1.649 2.63 3.192 2.63h3.043c1.542 0 2.853-1.082 3.188-2.619l.002-.009c.012-.054.138-.612.31-1.398a.996.996 0 0 0-.975-1.206H7.579Z"/></mask><path fill="#F2F4F8" d="M7.579 24.664a.996.996 0 0 0-.975 1.206c.17.781.295 1.334.307 1.387l.001.009c.337 1.548 1.649 2.63 3.192 2.63h3.043c1.542 0 2.853-1.082 3.188-2.619l.002-.009c.012-.054.138-.612.31-1.398a.996.996 0 0 0-.975-1.206H7.579Z"/><path fill="#4B5563" d="m16.335 27.277-1.955-.425 1.955.425Zm.002-.009-1.951-.44 1.95.44Zm-9.426-.01-1.952.439 1.952-.44Zm.001.008 1.955-.425-1.955.425Zm9.734-1.396-1.954-.426 1.954.426Zm-11.996.426c.171.787.297 1.345.31 1.4l3.902-.878c-.012-.05-.135-.598-.304-1.373l-3.908.851Zm.308 1.395c.529 2.431 2.625 4.204 5.146 4.204v-4c-.566 0-1.093-.389-1.237-1.054l-3.909.85Zm5.146 4.204h3.043v-4h-3.043v4Zm3.043 0c2.516 0 4.615-1.769 5.142-4.192l-3.909-.85c-.141.65-.665 1.042-1.233 1.042v4Zm5.14-4.186c.014-.058.14-.62.313-1.413l-3.908-.852c-.17.78-.294 1.332-.306 1.383l3.902.882Zm-2.615-5.045H7.579v4h8.093v-4Zm2.617 5.039-.002.006-3.901-.882-.006.025 3.909.85Zm-13.33-.006v-.006l3.908-.85a2.354 2.354 0 0 0-.005-.023l-3.903.879ZM18.6 26.296a2.996 2.996 0 0 0-2.928-3.632v4a1.004 1.004 0 0 1-.98-1.22l3.908.852Zm-10.042-.851a1.004 1.004 0 0 1-.979 1.219v-4a2.996 2.996 0 0 0-2.929 3.632l3.908-.851Z" mask="url(#a)"/></svg>