<svg xmlns="http://www.w3.org/2000/svg" width="28" height="28" fill="none"><path fill="#F2F4F8" stroke="#4B5563" stroke-linecap="round" stroke-linejoin="round" stroke-width="1.501" d="m21.967 12.197 1.582-.912a1.378 1.378 0 0 0 .504-1.883l-1.378-2.389a1.378 1.378 0 0 0-1.885-.504l-1.579.915a9.54 9.54 0 0 0-3.83-2.238V3.378A1.378 1.378 0 0 0 14.001 2h-2.756a1.378 1.378 0 0 0-1.378 1.378v1.808a9.646 9.646 0 0 0-3.844 2.221L4.459 6.5a1.378 1.378 0 0 0-1.885.505l-1.378 2.39a1.378 1.378 0 0 0 .507 1.881l1.562.902a9.538 9.538 0 0 0 0 4.437l-1.576.91a1.378 1.378 0 0 0-.504 1.881l1.378 2.39a1.378 1.378 0 0 0 1.885.504l1.573-.912a9.56 9.56 0 0 0 3.847 2.24v1.797a1.378 1.378 0 0 0 1.378 1.378h2.756a1.378 1.378 0 0 0 1.378-1.378V23.62a9.596 9.596 0 0 0 3.842-2.224l1.568.907a1.377 1.377 0 0 0 1.885-.505l1.378-2.389a1.378 1.378 0 0 0-.504-1.882l-1.555-.904a9.55 9.55 0 0 0-.027-4.426Z"/><path stroke="#4B5563" stroke-linecap="round" stroke-linejoin="round" stroke-width="1.501" d="M12.621 18.538a4.134 4.134 0 1 0 0-8.268 4.134 4.134 0 0 0 0 8.268Z"/></svg>