<svg xmlns="http://www.w3.org/2000/svg" width="25" height="24" fill="none"><path fill="#F2F4F8" d="M13.236 1.037H10.92c-1.28 0-2.317.978-2.317 2.185a1.82 1.82 0 0 1-2.69 1.598l-.122-.067c-1.109-.603-2.526-.245-3.165.8l-1.16 1.89c-.64 1.045-.26 2.381.848 2.984 1.213.66 1.213 2.402 0 3.063-1.108.603-1.488 1.939-.848 2.984l1.159 1.892c.64 1.044 2.056 1.402 3.165.8l.123-.068a1.82 1.82 0 0 1 2.69 1.598c0 1.207 1.037 2.185 2.316 2.185h2.317c1.28 0 2.317-.978 2.317-2.185a1.82 1.82 0 0 1 2.69-1.598l.123.067c1.108.603 2.525.245 3.165-.8l1.158-1.891c.64-1.045.26-2.381-.848-2.984-1.213-.66-1.213-2.402 0-3.063 1.108-.603 1.488-1.939.848-2.984l-1.158-1.892c-.64-1.044-2.057-1.402-3.165-.8l-.123.068a1.82 1.82 0 0 1-2.69-1.598c0-1.207-1.037-2.185-2.317-2.185Z"/><path fill="#F2F4F8" d="M15.719 11.96a3.64 3.64 0 1 1-7.282 0 3.64 3.64 0 0 1 7.282 0Z"/><path stroke="#4B5563" stroke-linejoin="round" stroke-width="2" d="M13.236 1.037H10.92c-1.28 0-2.317.978-2.317 2.185a1.82 1.82 0 0 1-2.69 1.598l-.122-.067c-1.109-.603-2.526-.245-3.165.8l-1.16 1.89c-.64 1.045-.26 2.381.848 2.984 1.213.66 1.213 2.402 0 3.063-1.108.603-1.488 1.939-.848 2.984l1.159 1.892c.64 1.044 2.056 1.402 3.165.8l.123-.068a1.82 1.82 0 0 1 2.69 1.598c0 1.207 1.037 2.185 2.316 2.185h2.317c1.28 0 2.317-.978 2.317-2.185a1.82 1.82 0 0 1 2.69-1.598l.123.067c1.108.603 2.525.245 3.165-.8l1.158-1.891c.64-1.045.26-2.381-.848-2.984-1.213-.66-1.213-2.402 0-3.063 1.108-.603 1.488-1.939.848-2.984l-1.158-1.892c-.64-1.044-2.057-1.402-3.165-.8l-.123.068a1.82 1.82 0 0 1-2.69-1.598c0-1.207-1.037-2.185-2.317-2.185Z"/><path stroke="#4B5563" stroke-linejoin="round" stroke-width="2" d="M15.719 11.96a3.64 3.64 0 1 1-7.282 0 3.64 3.64 0 0 1 7.282 0Z"/></svg>