<svg xmlns="http://www.w3.org/2000/svg" width="29" height="30" fill="none"><path fill="#F2F4F8" stroke="#4B5563" stroke-linecap="round" stroke-linejoin="round" stroke-width="1.562" d="M.79 11.078A3.757 3.757 0 0 1 4.545 7.32h19.723a3.757 3.757 0 0 1 3.756 3.757v14.087a3.757 3.757 0 0 1-3.756 3.757H4.546a3.757 3.757 0 0 1-3.757-3.757V11.078Z"/><path fill="#F2F4F8" d="M8.3 6.851V5.443a3.757 3.757 0 0 1 3.757-3.757h4.696a3.757 3.757 0 0 1 3.757 3.757V6.85"/><path stroke="#4B5563" stroke-linecap="round" stroke-linejoin="round" stroke-width="1.562" d="M8.3 6.851V5.443a3.757 3.757 0 0 1 3.757-3.757h4.696a3.757 3.757 0 0 1 3.757 3.757V6.85"/><path fill="#F2F4F8" d="M1.258 15.773h26.297H1.258Z"/><path stroke="#4B5563" stroke-linecap="round" stroke-linejoin="round" stroke-width="1.562" d="M1.258 15.773h26.297"/></svg>