<svg xmlns="http://www.w3.org/2000/svg" width="28" height="26" fill="none"><path fill="#F2F4F8" d="m19.846 7.985-6.602-6.601L2.998 1 1 3.054v21.612h18.846V7.985Z"/><path stroke="#4B5563" stroke-width="2" d="M19.73 12.437V7.345l-6.109-6.109H3.44a2.037 2.037 0 0 0-2.037 2.037v9.164"/><path stroke="#4B5563" stroke-width="2" d="M13.621 1.236v6.11h6.11M1.401 24.655V15.49H3.44a2.037 2.037 0 0 1 0 4.073H1.402m19.347 0h-3.055m0 5.091V15.49h5.091m-9.164 6.11a2.037 2.037 0 0 1-2.036 2.036H9.548V15.49h2.037c1.124 0 2.036.913 2.036 2.037V21.6Z"/></svg>