<svg xmlns="http://www.w3.org/2000/svg" width="22" height="22" fill="none"><g clip-path="url(#a)"><path fill="#E5E7EB" stroke="#4B5563" stroke-linecap="round" stroke-linejoin="round" stroke-width="1.479" d="M6.683 1H2.808C1.81 1 1 1.81 1 2.808c0 9.987 8.096 18.083 18.082 18.083a1.81 1.81 0 0 0 1.809-1.809v-3.875l-4.263-2.841-2.21 2.21c-.384.384-.957.503-1.44.254a15.22 15.22 0 0 1-3.453-2.464 11.97 11.97 0 0 1-2.519-3.487c-.22-.466-.093-1.005.272-1.37l2.247-2.247L6.683 1Z"/></g><defs><clipPath id="a"><path fill="#fff" d="M0 0h22v22H0z"/></clipPath></defs></svg>