<svg xmlns="http://www.w3.org/2000/svg" width="47" height="47" fill="none"><path fill="#E5E7EB" stroke="#4B5563" stroke-linecap="round" stroke-linejoin="round" stroke-width="2" d="M1 7.207A6.207 6.207 0 0 1 7.207 1h32.586A6.207 6.207 0 0 1 46 7.207v23.276a6.207 6.207 0 0 1-6.207 6.207h-8.146L23.5 46l-8.147-9.31H7.207A6.207 6.207 0 0 1 1 30.483V7.207Z"/><path fill="#4B5563" stroke="#4B5563" stroke-linecap="round" stroke-linejoin="round" stroke-width="1.795" d="M16.535 20.396a1.393 1.393 0 1 1-2.785 0 1.393 1.393 0 0 1 2.785 0Zm8.36 0a1.393 1.393 0 1 1-2.786 0 1.393 1.393 0 0 1 2.786 0Zm8.351 0a1.393 1.393 0 1 1-2.785 0 1.393 1.393 0 0 1 2.785 0Z"/></svg>