<svg xmlns="http://www.w3.org/2000/svg" width="32" height="32" fill="none"><path fill="#F2F4F8" d="M4.875 24.25A2.875 2.875 0 0 1 2 21.375v-11.09A3.286 3.286 0 0 1 5.286 7h11.089a2.875 2.875 0 0 1 2.875 2.875"/><path stroke="#4B5563" stroke-linecap="round" stroke-linejoin="round" stroke-width="2" d="M4.875 24.25A2.875 2.875 0 0 1 2 21.375v-11.09A3.286 3.286 0 0 1 5.286 7h11.089a2.875 2.875 0 0 1 2.875 2.875"/><path fill="#F2F4F8" stroke="#4B5563" stroke-linecap="round" stroke-linejoin="round" stroke-width="2" d="M22.535 13.571H11.857a3.286 3.286 0 0 0-3.286 3.286v10.678a3.286 3.286 0 0 0 3.286 3.286h10.678a3.286 3.286 0 0 0 3.286-3.286V16.857a3.286 3.286 0 0 0-3.286-3.286Z"/></svg>